<svg 
 xmlns="http://www.w3.org/2000/svg"
 xmlns:xlink="http://www.w3.org/1999/xlink"
 width="43.264px" height="12.264px">
<path fill-rule="evenodd"  stroke="rgb(0, 0, 0)" stroke-width="0.176px" stroke-linecap="butt" stroke-linejoin="miter" fill="rgb(33, 112, 98)"
 d="M37.195,11.581 C34.144,11.581 31.670,9.106 31.670,6.52 C31.670,2.998 34.144,0.523 37.195,0.523 C40.246,0.523 42.720,2.998 42.720,6.52 C42.720,9.106 40.246,11.581 37.195,11.581 ZM21.640,11.581 C18.588,11.581 16.115,9.106 16.115,6.52 C16.115,2.998 18.588,0.523 21.640,0.523 C24.691,0.523 27.164,2.998 27.164,6.52 C27.164,9.106 24.691,11.581 21.640,11.581 ZM6.84,11.581 C3.33,11.581 0.560,9.106 0.560,6.52 C0.560,2.998 3.33,0.523 6.84,0.523 C9.135,0.523 11.609,2.998 11.609,6.52 C11.609,9.106 9.135,11.581 6.84,11.581 Z"/>
</svg>